PathFileType	4	(X/Y/Z)	C:/Users/opensim2020/Desktop/walking_exp_matlab/subject01_walking12_straight_03.trc																																																																																																																																		
DataRate	CameraRate	NumFrames	NumMarkers	Units	OrigDataRate	OrigDataStartFrame	OrigNumFrames																																																																																																																														
100	100	8	44	mm	100	1884	172																																																																																																																														
Frame#	Time	LFHD			RFHD			LBHD			RBHD			C7			T10			CLAV			STRN			RBAK			LSHO			LUPA			LELB			LFRM			LWRA			LWRB			LFIN			RSHO			RUPA			RELB			RFRM			RWRA			RWRB			RFIN			LASI			RASI			LPSI			RPSI			LTHI			LKNE			LTIB			LANK			LHEE			LTOE			RTHI			RKNE			RTIB			RANK			RHEE			RTOE			*39			*40			*41			*42			*43		
		X1	Y1	Z1	X2	Y2	Z2	X3	Y3	Z3	X4	Y4	Z4	X5	Y5	Z5	X6	Y6	Z6	X7	Y7	Z7	X8	Y8	Z8	X9	Y9	Z9	X10	Y10	Z10	X11	Y11	Z11	X12	Y12	Z12	X13	Y13	Z13	X14	Y14	Z14	X15	Y15	Z15	X16	Y16	Z16	X17	Y17	Z17	X18	Y18	Z18	X19	Y19	Z19	X20	Y20	Z20	X21	Y21	Z21	X22	Y22	Z22	X23	Y23	Z23	X24	Y24	Z24	X25	Y25	Z25	X26	Y26	Z26	X27	Y27	Z27	X28	Y28	Z28	X29	Y29	Z29	X30	Y30	Z30	X31	Y31	Z31	X32	Y32	Z32	X33	Y33	Z33	X34	Y34	Z34	X35	Y35	Z35	X36	Y36	Z36	X37	Y37	Z37	X38	Y38	Z38	X39	Y39	Z39	X40	Y40	Z40	X41	Y41	Z41	X42	Y42	Z42	X43	Y43	Z43	X44	Y44	Z44
																																																																																																																																					
108	1.07	336.54318	1675.38757	-1056.91919	352.20056	1676.10217	-943.89868	218.62344	1636.43396	-1048.50598	232.23999	1636.078	-928.46143	173.10788	1439.10486	-1010.57654	138.79526	1144.36768	-1008.34814	316.40387	1371.66174	-1014.81586	360.20831	1218.27734	-1025.81311	120.70447	1241.53955	-935.37848	250.76108	1407.0282	-1173.59509	202.0047	1230.04358	-1261.42847	177.72513	1078.10144	-1264.70667	224.50906	971.57019	-1288.61719	316.47522	866.67078	-1273.20886	260.92026	854.6593	-1291.99695	314.28281	789.99469	-1303.77869	256.68164	1393.6123	-860.68903	213.21631	1190.26514	-759.44171	223.49803	1063.83264	-756.50244	272.65634	951.0694	-734.02051	369.89908	851.84137	-765.71948	331.03879	843.76001	-723.27881	382.29535	776.92126	-728.28467	310.49301	941.94635	-1124.38025	317.29047	940.88062	-907.51385	126.54402	947.7359	-1068.78491	131.69093	953.48718	-924.33618	370.7876	630.82727	-1202.25635	399.07785	500.87842	-1194.23096	290.57455	351.1431	-1194.46936	184.54877	161.66072	-1142.5553	142.88225	148.13402	-1080.39563	289.15829	64.26688	-1172.00049	258.84381	605.08167	-864.21411	261.80884	446.48941	-896.18335	200.27693	279.88123	-894.43695	163.72365	78.36069	-953.36877	112.17722	43.79546	-1004.85938	303.47211	37.21809	-960.05078	341.7681	1711.40601	-964.90491	1973.09436	1023.51599	-3101.92676	2012.53357	1022.16656	-3140.87695	NaN	NaN	NaN	NaN	NaN	NaN
109	1.08	346.80417	1675.005	-1057.17542	362.41196	1675.7323	-944.17474	228.83186	1636.09851	-1048.88428	242.3764	1635.83911	-928.68079	182.97899	1438.97388	-1010.55115	148.44193	1144.18518	-1007.65472	326.34088	1371.24512	-1014.99518	369.94348	1217.75952	-1025.79663	130.51656	1241.65771	-934.60419	260.54047	1406.72131	-1173.65869	210.39127	1229.60876	-1260.88147	184.53911	1078.1145	-1263.2627	228.55144	970.54608	-1287.02429	317.69879	863.07196	-1271.76978	261.72183	852.64954	-1290.35425	313.19189	786.29755	-1301.89954	266.91605	1393.60571	-860.72571	224.57889	1190.31763	-758.94025	236.52826	1063.8031	-755.33093	288.81873	952.30316	-733.22241	388.60214	855.92981	-765.30634	349.88849	846.42737	-723.21533	403.27356	781.22986	-728.27954	320.03143	941.77478	-1123.85681	326.33789	940.10333	-907.05591	135.93909	947.55737	-1068.9303	140.67734	953.46631	-924.39563	383.5177	632.28723	-1202.08557	413.14178	502.14859	-1193.53357	310.69199	347.10553	-1194.70605	214.13391	152.07721	-1143.33191	173.14755	135.88071	-1081.19177	324.43225	61.74306	-1173.36279	264.25534	604.72998	-864.20258	265.6734	446.04816	-896.01477	202.58386	280.09729	-894.34399	164.55386	78.75562	-953.45605	113.09283	44.07748	-1004.97064	303.69321	37.12609	-960.18903	351.89981	1710.70996	-965.43701	1973.05286	1023.43683	-3101.98584	2012.51099	1022.01215	-3140.64966	NaN	NaN	NaN	NaN	NaN	NaN
110	1.09	357.09857	1674.4425	-1057.35107	372.53351	1675.25513	-944.53845	238.98401	1635.6377	-1049.2417	252.54938	1635.52783	-929.0929	193.0493	1438.65833	-1010.60156	158.09059	1143.89368	-1007.11121	336.30865	1370.745	-1015.25415	379.6171	1217.08765	-1025.75293	140.40996	1241.69458	-933.86078	270.3494	1406.16858	-1173.84558	218.86655	1229.02124	-1260.38354	191.5873	1077.9613	-1261.8573	232.81998	969.51617	-1285.64026	319.12326	859.61346	-1270.41284	262.80981	850.7276	-1288.78552	312.27524	782.76886	-1300.22668	277.17303	1393.43384	-860.93054	236.03845	1190.38757	-758.46991	249.29747	1063.78674	-754.21802	304.49835	953.20746	-732.55139	407.05765	860.04626	-765.18951	368.61972	849.25494	-723.13641	423.93582	785.7323	-728.45752	329.46707	941.29559	-1123.29712	335.23602	939.15973	-906.56934	145.36308	947.3269	-1069.11926	149.74867	953.14343	-924.77655	395.78781	633.4046	-1201.82922	426.6861	503.1456	-1192.74329	330.74884	342.79889	-1194.98584	244.4635	142.43211	-1144.23303	204.57521	123.73798	-1082.10205	360.16476	59.50669	-1174.75061	270.14197	604.24817	-864.24048	269.58987	445.31702	-896.0351	204.90288	280.10229	-894.41357	164.93755	79.17763	-953.83313	113.11945	45.15881	-1005.31702	303.94022	36.99196	-960.29144	362.26389	1710.48486	-965.68805	1973.06787	1023.45184	-3101.98364	2012.50586	1022.00079	-3140.81665	NaN	NaN	NaN	NaN	NaN	NaN
111	1.1	367.07123	1673.87158	-1058.32043	382.7438	1674.72131	-945.00702	249.12494	1635.15503	-1049.87305	262.67813	1635.01367	-929.59705	203.04361	1438.15442	-1010.78442	167.79361	1143.52429	-1006.75171	346.32855	1370.11707	-1015.50555	389.38242	1216.35645	-1025.77283	149.96678	1241.55176	-933.23035	280.19678	1405.31787	-1173.93164	227.49763	1228.25854	-1259.98523	198.83685	1077.81812	-1260.56714	237.33121	968.42792	-1284.27661	320.76233	856.22113	-1269.04846	264.16339	848.81091	-1287.28967	311.8511	779.53851	-1298.82666	287.47842	1393.17517	-861.21411	247.53685	1190.30432	-758.14001	262.08441	1063.67505	-753.23792	320.20465	954.38171	-731.9469	425.19888	864.26007	-765.14575	387.31656	852.28442	-722.99713	444.37976	790.40106	-728.6806	339.41998	941.16754	-1122.96069	344.55615	938.28595	-906.12964	154.83876	947.01892	-1069.39685	159.11526	952.44287	-925.00641	407.66473	634.1131	-1201.58716	439.37805	503.81055	-1192.17749	350.79568	338.35129	-1195.50806	275.54681	133.17896	-1145.5343	236.2316	111.79721	-1083.61731	396.20587	57.82926	-1176.36853	276.01569	603.68915	-864.30475	273.70569	444.75381	-895.80481	207.41251	280.22598	-894.45087	165.58894	79.56461	-953.98315	113.65417	45.83363	-1005.64832	304.18015	36.91756	-960.47772	372.46597	1709.95007	-965.9787	1973.20618	1023.56512	-3102.02881	2012.50024	1022.04254	-3140.82007	NaN	NaN	NaN	NaN	NaN	NaN
112	1.11	377.36349	1673.17493	-1058.84961	392.90219	1674.12805	-945.45306	259.36823	1634.49512	-1050.52161	272.92838	1634.53052	-930.07806	213.06178	1437.73438	-1011.01471	177.48686	1143.01111	-1006.44281	356.38907	1369.41211	-1015.82861	399.24799	1215.52771	-1025.83606	160.097	1241.28284	-932.83606	290.08264	1404.64075	-1174.30725	236.16356	1227.35901	-1259.63257	206.19742	1077.27588	-1259.45374	242.1077	967.24615	-1283.09277	322.6362	852.86835	-1267.7749	265.82944	846.96454	-1285.98096	311.65634	776.33789	-1297.27039	297.80936	1392.88135	-861.51636	259.04398	1190.13843	-757.83435	274.74457	1063.53674	-752.32489	335.67081	955.56488	-731.45056	443.21423	868.45435	-765.27197	405.48343	855.3681	-723.08435	464.30246	795.03918	-729.06183	349.13226	940.51898	-1122.72083	353.34857	936.99023	-905.69409	164.36836	946.59589	-1069.77466	167.89055	952.19226	-925.36981	418.96783	634.46271	-1201.36145	451.47052	504.23575	-1191.47705	371.01013	333.79584	-1196.44446	307.29526	124.19823	-1147.26367	269.13724	100.06197	-1085.40149	432.54199	56.84829	-1178.12354	282.16293	603.04938	-864.35602	278.10367	444.13571	-896.08588	209.93967	280.3555	-894.55188	166.06949	80.32473	-954.34705	114.42844	46.31409	-1005.98853	304.39383	36.79488	-960.62244	382.64987	1709.31653	-966.57513	1973.2002	1023.4635	-3101.95313	2012.55286	1022.13727	-3140.79932	NaN	NaN	NaN	NaN	NaN	NaN
113	1.12	387.68079	1672.354	-1059.42273	403.10309	1673.45251	-946.11517	269.63373	1633.72583	-1051.13953	283.04782	1633.86218	-930.72949	223.22127	1437.13965	-1011.16968	187.30019	1142.43945	-1006.42371	366.50467	1368.65906	-1016.20929	409.12558	1214.67212	-1025.9884	170.24028	1240.86096	-932.52887	300.00998	1403.57117	-1174.64099	244.98796	1226.36707	-1259.41589	213.92374	1076.8468	-1258.38086	247.21281	966.04388	-1281.96277	324.79236	849.60736	-1266.57507	267.86688	845.17285	-1284.76648	311.85953	773.31152	-1295.87939	308.21024	1392.49536	-861.90192	270.56879	1189.927	-757.57465	287.29965	1063.40247	-751.44958	351.24683	956.99164	-731.01044	460.51721	872.58997	-765.50555	423.41629	858.49127	-723.06433	483.79498	799.61322	-729.53766	358.94165	939.72662	-1122.49805	362.66077	936.0589	-905.16754	173.94374	946.07434	-1070.125	176.97238	951.53674	-925.93359	429.85138	634.57208	-1201.1731	462.76193	504.189	-1190.61121	391.13104	329.18613	-1197.45483	339.51483	115.97593	-1149.46167	302.46579	89.48533	-1087.82043	468.94861	56.05347	-1179.43994	288.35571	602.46759	-864.38995	282.59735	443.70364	-895.98224	212.33505	280.60632	-894.52759	166.51764	80.69569	-954.50879	114.1864	47.64764	-1006.43286	304.60489	36.68813	-960.80011	392.93222	1708.65649	-967.15527	1973.09717	1023.45325	-3101.88818	2012.47424	1022.09137	-3140.71851	NaN	NaN	NaN	NaN	NaN	NaN
114	1.13	397.98248	1671.56628	-1060.21082	413.35092	1672.71948	-946.81567	279.91904	1632.90759	-1052.00073	293.27209	1633.19128	-931.47168	233.40857	1436.49377	-1011.76849	197.0795	1141.82397	-1006.53571	376.67899	1367.82056	-1016.64862	419.11792	1213.7085	-1026.13574	180.47025	1240.36401	-932.42847	310.07794	1402.68213	-1175.14404	253.89301	1225.29187	-1259.2876	221.81067	1076.09412	-1257.51929	252.63533	964.82227	-1280.99597	327.39346	846.55072	-1265.53845	270.26645	843.42468	-1283.76575	312.61252	770.34332	-1294.59717	318.62579	1391.99976	-862.2948	282.11975	1189.60535	-757.42926	299.78992	1063.17322	-750.73621	366.04608	958.04028	-730.64014	477.51083	876.66479	-765.84448	441.18237	861.44598	-723.27667	503.01855	804.32062	-730.07568	368.84399	938.83472	-1122.35596	371.71832	934.94275	-904.90649	183.60603	945.46057	-1070.57922	186.21286	950.85651	-926.42511	440.14355	634.1828	-1200.9032	473.255	503.67703	-1189.86511	411.15863	324.60229	-1198.34216	372.12161	108.0556	-1151.81152	336.05453	80.08134	-1090.9375	505.48141	56.15343	-1180.80505	294.72058	601.94916	-864.35999	286.81519	442.98462	-895.92542	214.67578	280.91373	-894.5799	167.0867	81.41607	-954.58588	114.22414	49.07499	-1006.76111	304.79883	36.66161	-960.86011	402.90543	1707.63025	-968.12701	1973.19104	1023.4729	-3101.95166	2012.54285	1022.13953	-3140.67773	NaN	NaN	NaN	NaN	NaN	NaN
115	1.14	408.2981	1670.62158	-1061.07751	423.63062	1671.98718	-947.68011	290.23108	1632.02502	-1052.87085	303.50684	1632.45129	-932.40948	243.74022	1435.75269	-1012.09955	206.7674	1141.2019	-1006.85541	386.91202	1366.90002	-1017.10278	429.06479	1212.70557	-1026.38977	190.772	1239.7655	-932.52155	320.15771	1401.41956	-1175.59802	262.91861	1224.11157	-1259.20435	229.98148	1075.34863	-1256.71191	258.36508	963.57703	-1280.10205	330.16464	843.60443	-1264.36548	273.08673	841.79529	-1282.94421	313.31976	767.58807	-1293.2251	329.06873	1391.45776	-862.77509	293.61401	1189.23914	-757.27386	312.16553	1062.93225	-749.96973	380.94754	959.21698	-730.39978	494.08432	880.5896	-766.31329	458.34412	864.37927	-723.57208	521.57007	808.94196	-730.69104	378.82675	937.88861	-1122.23694	380.92371	933.88422	-904.62762	193.35625	944.69617	-1071.05017	195.47307	950.18927	-927.04761	449.60947	632.90576	-1200.61633	483.1087	502.63327	-1189.25854	430.85809	320.81622	-1199.49829	404.94379	101.58797	-1154.93713	370.16	71.38537	-1093.93384	541.87402	57.10049	-1181.75415	300.98117	601.30078	-864.37903	291.10831	442.59909	-895.59174	216.87488	281.38126	-894.58105	167.54489	82.22386	-954.68085	115.03199	49.93706	-1006.82043	304.90466	36.59945	-960.91882	413.3844	1706.97937	-968.88281	1973.05896	1023.54437	-3101.88647	2012.55212	1021.89124	-3140.74854	NaN	NaN	NaN	NaN	NaN	NaN
